<svg width="43" height="51" xmlns="http://www.w3.org/2000/svg" xmlns:xlink="http://www.w3.org/1999/xlink" xmlns:svgjs="http://svgjs.com/svgjs" viewBox="0.636 0 41.727 51" fill=""><svg xmlns="http://www.w3.org/2000/svg" width="43" height="51" viewBox="1.949 1.018 40.909 50"><path paint-order="stroke fill markers" fill-rule="evenodd" d="M22.403 41.927c-11.764 0-18.182-3.753-18.182-5.682 0-1.223.293-2.184.78-3.061 3.113 2.481 9.724 4.198 17.402 4.198 7.682 0 14.289-1.72 17.4-4.203.487.878.782 1.841.782 3.066 0 1.93-6.418 5.682-18.182 5.682zm0 6.818a4.546 4.546 0 0 1-4.545-4.545c0-.069.014-.133.017-.202 1.459.129 2.97.202 4.528.202 1.558 0 3.07-.073 4.528-.202.003.069.018.133.018.202a4.546 4.546 0 0 1-4.546 4.545zM7.532 30.071c2.575-2.692 5.78-6.045 5.78-13.144 0-3.798 2.344-7.055 5.66-8.413.833.97 2.053 1.595 3.431 1.595 1.378 0 2.598-.626 3.431-1.595 3.316 1.358 5.66 4.615 5.66 8.413 0 7.1 3.205 10.452 5.78 13.144.492.514.947.99 1.353 1.462-2.176 2.071-8.6 3.576-16.224 3.576-7.616 0-14.048-1.5-16.23-3.568.408-.474.865-.953 1.359-1.47zM22.403 3.29a2.273 2.273 0 1 1 0 4.545 2.273 2.273 0 0 1 0-4.545zm20.455 32.954c0-7.954-9.091-7.954-9.091-19.318 0-4.694-2.848-8.722-6.91-10.456a4.546 4.546 0 1 0-8.909 0c-4.06 1.734-6.908 5.762-6.908 10.456 0 11.364-9.091 11.364-9.091 19.318 0 3.467 5.712 6.408 13.668 7.498-.012.152-.032.302-.032.457a6.818 6.818 0 1 0 13.636 0c0-.155-.02-.305-.032-.457 7.956-1.09 13.669-4.03 13.669-7.498z"/></svg></svg>