<?xml version="1.0" standalone="no"?>
<!DOCTYPE svg PUBLIC "-//W3C//DTD SVG 20010904//EN"
 "http://www.w3.org/TR/2001/REC-SVG-20010904/DTD/svg10.dtd">
<svg version="1.0" xmlns="http://www.w3.org/2000/svg"
 width="65.000000pt" height="38.000000pt" viewBox="0 0 65.000000 38.000000"
 preserveAspectRatio="xMidYMid meet">

<g transform="translate(0.000000,38.000000) scale(0.100000,-0.100000)"
fill="#DF236C" stroke="none">
<path d="M57 333 c-36 -53 -47 -87 -47 -146 0 -54 23 -114 60 -156 33 -39 35
-16 1 32 -58 85 -58 169 -1 252 32 46 35 55 21 55 -4 0 -20 -17 -34 -37z"/>
<path d="M557 364 c-3 -3 8 -24 24 -47 60 -82 61 -162 4 -247 -19 -27 -30 -52
-25 -55 14 -9 68 78 81 129 15 58 0 121 -42 182 -32 47 -32 47 -42 38z"/>
<path d="M132 307 c-24 -31 -42 -79 -42 -117 0 -53 41 -137 61 -125 4 3 -3 22
-16 42 -34 49 -34 117 0 166 13 20 20 39 16 42 -5 2 -13 -1 -19 -8z"/>
<path d="M497 313 c-4 -6 2 -18 13 -28 47 -43 49 -131 4 -184 -13 -16 -20 -32
-15 -35 14 -9 49 41 61 85 8 27 8 51 0 79 -12 45 -53 99 -63 83z"/>
<path d="M269 251 c-35 -35 -38 -77 -9 -114 50 -64 149 -31 150 50 0 45 -9 62
-41 78 -42 22 -67 18 -100 -14z"/>
<path d="M174 225 c-12 -31 -12 -39 0 -70 8 -19 20 -35 26 -35 7 0 10 3 8 8
-2 4 -10 19 -17 35 -12 23 -12 31 0 55 7 15 15 30 17 35 2 4 -1 7 -8 7 -6 0
-18 -16 -26 -35z"/>
<path d="M454 235 c9 -13 16 -34 16 -45 0 -11 -7 -32 -16 -45 -9 -14 -12 -25
-6 -25 17 0 42 42 42 70 0 28 -25 70 -42 70 -6 0 -3 -11 6 -25z"/>
</g>
</svg>
